REM MD5 a0564929ccc2a7eea31d63fec90f3293
FILE "DemoDemo PlayStation Vol. 12 (Japan).bin" BINARY
  TRACK 01 MODE2/2352
    INDEX 01 00:00:00
  TRACK 02 AUDIO
    INDEX 00 48:18:54
    INDEX 01 48:20:54
  TRACK 03 AUDIO
    INDEX 00 49:16:22
    INDEX 01 49:18:22
REM LEADOUT 49:42:06
